<?xml version="1.0" encoding="UTF-8"?>
<svg version="1.1" xmlns="http://www.w3.org/2000/svg" width="192" height="192">
<path d="M0 0 C63.36 0 126.72 0 192 0 C192 63.36 192 126.72 192 192 C128.64 192 65.28 192 0 192 C0 128.64 0 65.28 0 0 Z " fill="#FBFBFB" transform="translate(0,0)"/>
<path d="M0 0 C6.13915666 2.81378014 10.54827752 7.76998566 13 14 C13.38622822 17.6454395 13.38049636 21.27417722 13.375 24.9375 C13.36398068 32.29657029 13.54470629 36.87104108 18.4375 42.5625 C19.24058594 43.32691406 20.04367188 44.09132812 20.87109375 44.87890625 C24.46645007 48.4610686 25.28918308 52.02572379 25.3125 57 C25.20749275 61.16322851 24.83955618 63.78183633 22 67 C18.8125 69.3125 18.8125 69.3125 16 71 C16.57018619 74.87451823 17.69596289 77.47070707 19.8125 80.75 C27 92.31927711 27 92.31927711 27 97 C27.66 97 28.32 97 29 97 C29 95.02 29 93.04 29 91 C29.99 90.67 30.98 90.34 32 90 C32 103.53 32 117.06 32 131 C31.01 131 30.02 131 29 131 C28.82984375 130.32195312 28.6596875 129.64390625 28.484375 128.9453125 C27.23151325 124.13379024 25.88190986 119.51815095 23.9375 114.9375 C22.58880826 111.72871668 21.74384802 108.87700623 21.25 105.4375 C19.18549931 93.88354001 12.06425741 82.80777956 6.43896484 72.64575195 C4 68.20418462 4 68.20418462 4 66 C3.34 66 2.68 66 2 66 C1.08145334 64.33436871 0.16527485 62.66743141 -0.75 61 C-1.30816406 59.98679688 -1.86632812 58.97359375 -2.44140625 57.9296875 C-3.63945473 55.67771667 -4.67992068 53.46097991 -5.6875 51.125 C-11.86199963 38.77600074 -27.66618745 21.94627337 -40.91772461 17.33227539 C-43.03949881 16.75561114 -45.16118923 16.26636303 -47.3125 15.8125 C-48.07159668 15.64524414 -48.83069336 15.47798828 -49.61279297 15.30566406 C-66.76865294 11.61440967 -83.80972752 11.7930459 -100.375 17.875 C-101.04136475 18.11943848 -101.70772949 18.36387695 -102.39428711 18.61572266 C-115.75586981 23.78697269 -125.05546065 34.12592495 -131 47 C-133.35937344 52.5052047 -134.12272787 56.72721289 -134.0625 62.75 C-134.04896484 64.50570312 -134.04896484 64.50570312 -134.03515625 66.296875 C-134.02355469 67.18890625 -134.01195312 68.0809375 -134 69 C-132.68 69.33 -131.36 69.66 -130 70 C-129.85111328 68.57107422 -129.85111328 68.57107422 -129.69921875 67.11328125 C-129.0023147 62.27387248 -127.43572955 57.78477365 -125.8125 53.1875 C-125.34602051 51.86117554 -125.34602051 51.86117554 -124.87011719 50.50805664 C-122.10088211 42.86730603 -118.99795419 35.6627744 -113 30 C-110.02175716 31.3827556 -107.40882516 32.752802 -105 35 C-104.27050781 37.69213867 -104.27050781 37.69213867 -103.953125 40.91796875 C-103.83066406 42.09037109 -103.70820312 43.26277344 -103.58203125 44.47070312 C-103.47246094 45.69724609 -103.36289063 46.92378906 -103.25 48.1875 C-103.12496094 49.39470703 -102.99992187 50.60191406 -102.87109375 51.84570312 C-102.2664183 57.92235921 -101.84792896 63.89434781 -102 70 C-108.15234375 70.09765625 -108.15234375 70.09765625 -110 70 C-111 69 -111 69 -111.11352539 66.13256836 C-111.10828857 64.88096924 -111.10305176 63.62937012 -111.09765625 62.33984375 C-111.0962413 61.67537735 -111.09482635 61.01091095 -111.09336853 60.3263092 C-111.08775518 58.19666101 -111.07520054 56.06711661 -111.0625 53.9375 C-111.05748671 52.49674631 -111.05292351 51.05599097 -111.04882812 49.61523438 C-111.03778145 46.07678898 -111.02050792 42.53840461 -111 39 C-116.35513434 44.22125598 -118.0487571 49.94465843 -120 57 C-120.37434484 58.29185669 -120.74925482 59.58354991 -121.125 60.875 C-122.18980218 64.67786493 -123.10685823 68.15789813 -123.31640625 72.109375 C-123.35830078 72.86347656 -123.40019531 73.61757812 -123.44335938 74.39453125 C-123.48267578 75.17183594 -123.52199219 75.94914062 -123.5625 76.75 C-123.60568359 77.54277344 -123.64886719 78.33554688 -123.69335938 79.15234375 C-123.79902991 81.10137815 -123.89997966 83.05066748 -124 85 C-122.96182129 84.99476318 -121.92364258 84.98952637 -120.85400391 84.98413086 C-116.95883057 84.96586947 -113.06366093 84.95449163 -109.16845703 84.94506836 C-107.49071616 84.94007604 -105.81297955 84.93327985 -104.13525391 84.92456055 C-78.34481798 84.7939955 -78.34481798 84.7939955 -72 90 C-71 91 -71 91 -70.7109375 93.57421875 C-71.08006323 97.94885751 -72.59458851 100.97321797 -74.625 104.8125 C-75.17087769 105.86981323 -75.17087769 105.86981323 -75.7277832 106.94848633 C-80.5380046 116.12645211 -85.56075043 123.76848661 -94 130 C-81.00081035 133.80505227 -81.00081035 133.80505227 -67.75 136.54296875 C-66 137 -66 137 -64 139 C-63.875 141.625 -63.875 141.625 -64 144 C-67 145 -67 145 -70 144 C-69.97679688 145.21816406 -69.95359375 146.43632812 -69.9296875 147.69140625 C-69.9109165 149.31509799 -69.89271773 150.93879642 -69.875 152.5625 C-69.85824219 153.36236328 -69.84148437 154.16222656 -69.82421875 154.98632812 C-69.78293262 160.04387881 -70.45897724 164.13577929 -72 169 C-72.21714992 170.70265277 -72.38984528 172.41209414 -72.5 174.125 C-72.80440931 177.75577286 -73.34938583 180.69877166 -75 184 C-75.66 184 -76.32 184 -77 184 C-77.66 180.7 -78.32 177.4 -79 174 C-79.88558594 173.79761719 -80.77117187 173.59523437 -81.68359375 173.38671875 C-85.7345471 171.69285722 -87.60719719 169.29157552 -90.0625 165.8125 C-90.49224121 165.22098145 -90.92198242 164.62946289 -91.36474609 164.02001953 C-92.20740933 162.85908076 -93.04549643 161.69480319 -93.87841797 160.52685547 C-95.05791676 158.87871455 -95.05791676 158.87871455 -96.75390625 156.97265625 C-100.40549851 152.71766698 -100.50150289 149.00288322 -100.37109375 143.6484375 C-99.97749956 140.83941788 -99.1593091 138.57934636 -98 136 C-98.81082031 135.85304687 -99.62164062 135.70609375 -100.45703125 135.5546875 C-108.55756449 133.91383443 -114.98081329 131.31949951 -122 127 C-125.19123682 125.04759735 -128.38666065 123.26270445 -131.75 121.625 C-137.66567401 118.69811196 -143.50438002 115.66374665 -149 112 C-151.76174011 98.19129946 -149.79345528 83.36374413 -147.1875 69.6875 C-146.95788574 68.4336853 -146.95788574 68.4336853 -146.72363281 67.15454102 C-145.74298991 62.27220155 -144.3400298 58.17491516 -141.9140625 53.81835938 C-140.92348693 51.84779131 -140.36259046 49.94439231 -139.8125 47.8125 C-137.66474792 41.07900698 -133.2514728 35.54577547 -129 30 C-127.96166016 28.64455078 -127.96166016 28.64455078 -126.90234375 27.26171875 C-113.54413362 11.20689798 -95.03104259 5.61163319 -74.9453125 3.7109375 C-60.14732344 3.23911756 -41.58526615 4.5800015 -30.0078125 14.75 C-28.03454876 16.23650015 -28.03454876 16.23650015 -25.4609375 15.91796875 C-22.56272401 14.83688912 -21.51592412 13.73380528 -19.625 11.3125 C-13.99303024 4.46047553 -9.31011629 -0.77584302 0 0 Z " fill="#201D1F" transform="translate(157,8)"/>
<path d="M0 0 C2.97824284 1.3827556 5.59117484 2.752802 8 5 C8.72949219 7.69213867 8.72949219 7.69213867 9.046875 10.91796875 C9.16933594 12.09037109 9.29179688 13.26277344 9.41796875 14.47070312 C9.52753906 15.69724609 9.63710938 16.92378906 9.75 18.1875 C9.87503906 19.39470703 10.00007813 20.60191406 10.12890625 21.84570312 C10.7335817 27.92235921 11.15207104 33.89434781 11 40 C4.84765625 40.09765625 4.84765625 40.09765625 3 40 C2 39 2 39 1.88647461 36.13256836 C1.89171143 34.88096924 1.89694824 33.62937012 1.90234375 32.33984375 C1.9037587 31.67537735 1.90517365 31.01091095 1.90663147 30.3263092 C1.91224482 28.19666101 1.92479946 26.06711661 1.9375 23.9375 C1.94251329 22.49674631 1.94707649 21.05599097 1.95117188 19.61523438 C1.96221855 16.07678898 1.97949208 12.53840461 2 9 C-3.35513434 14.22125598 -5.0487571 19.94465843 -7 27 C-7.37434484 28.29185669 -7.74925482 29.58354991 -8.125 30.875 C-9.18980218 34.67786493 -10.10685823 38.15789813 -10.31640625 42.109375 C-10.35830078 42.86347656 -10.40019531 43.61757812 -10.44335938 44.39453125 C-10.48267578 45.17183594 -10.52199219 45.94914062 -10.5625 46.75 C-10.60568359 47.54277344 -10.64886719 48.33554688 -10.69335938 49.15234375 C-10.79902991 51.10137815 -10.89997966 53.05066748 -11 55 C-10.34 55.33 -9.68 55.66 -9 56 C-11.31 56 -13.62 56 -16 56 C-18.00710029 65.78461393 -17.42209299 72.45737953 -12 81 C-9.27996345 84.6244487 -6.21350861 87.81501365 -3 91 C-6.93227024 90.45385135 -8.89685692 89.39385323 -12 87 C-13.26478454 86.40366518 -14.53642642 85.82177912 -15.8125 85.25 C-21.49900348 82.49709458 -25.52623885 78.21064173 -29 73 C-29.24291992 70.77929688 -29.24291992 70.77929688 -29.23046875 68.21875 C-29.22853516 67.29449219 -29.22660156 66.37023437 -29.22460938 65.41796875 C-29.21236328 64.45503906 -29.20011719 63.49210937 -29.1875 62.5 C-29.18685547 61.53707031 -29.18621094 60.57414062 -29.18554688 59.58203125 C-29.14060834 52.42182503 -29.14060834 52.42182503 -28 49 C-27.34 49 -26.68 49 -26 49 C-25.67 50.32 -25.34 51.64 -25 53 C-23.515 52.505 -23.515 52.505 -22 52 C-21.73067479 47.34947128 -21.73067479 47.34947128 -23 43 C-23.0716735 40.44842345 -23.09308442 37.92527029 -23.0625 35.375 C-23.05798828 34.66859375 -23.05347656 33.9621875 -23.04882812 33.234375 C-23.03703875 31.48954725 -23.01910324 29.744763 -23 28 C-22.67 28 -22.34 28 -22 28 C-21.67 31.63 -21.34 35.26 -21 39 C-19.68 39.33 -18.36 39.66 -17 40 C-16.90074219 39.04738281 -16.80148438 38.09476563 -16.69921875 37.11328125 C-16.0023147 32.27387248 -14.43572955 27.78477365 -12.8125 23.1875 C-12.34602051 21.86117554 -12.34602051 21.86117554 -11.87011719 20.50805664 C-9.10088211 12.86730603 -5.99795419 5.6627744 0 0 Z " fill="#F4F3F3" transform="translate(44,38)"/>
<path d="M0 0 C6.49920663 0.41264804 12.66775756 1.47585357 19 2.9375 C19.754021 3.10733398 20.50804199 3.27716797 21.28491211 3.45214844 C26.75499142 4.75499142 26.75499142 4.75499142 29 7 C29.125 9.625 29.125 9.625 29 12 C26 13 26 13 23 12 C23.02320312 13.21816406 23.04640625 14.43632812 23.0703125 15.69140625 C23.0890835 17.31509799 23.10728227 18.93879642 23.125 20.5625 C23.15013672 21.76229492 23.15013672 21.76229492 23.17578125 22.98632812 C23.21706738 28.04387881 22.54102276 32.13577929 21 37 C20.78285008 38.70265277 20.61015472 40.41209414 20.5 42.125 C20.19559069 45.75577286 19.65061417 48.69877166 18 52 C17.34 52 16.68 52 16 52 C15.34 48.7 14.68 45.4 14 42 C13.11570312 41.80019531 12.23140625 41.60039062 11.3203125 41.39453125 C7.23085159 39.67695767 5.34995883 37.20475221 2.875 33.6875 C2.03939288 32.54533114 1.20345972 31.40340073 0.3671875 30.26171875 C-0.02815186 29.70726074 -0.42349121 29.15280273 -0.83081055 28.58154297 C-1.91020539 27.12146367 -3.09048466 25.737432 -4.27734375 24.36328125 C-6.96619936 20.6744884 -6.67964248 17.38969085 -6 13 C-4.625 10.1875 -4.625 10.1875 -3 8 C-1.55039427 5.34238949 -0.69625793 2.93771988 0 0 Z " fill="#141414" transform="translate(64,140)"/>
<path d="M0 0 C11.88 0 23.76 0 36 0 C36.66 4.29 37.32 8.58 38 13 C39.32 13.33 40.64 13.66 42 14 C40.76646639 19.89950859 37.69752222 25.01147397 33.8125 29.5625 C29.47473628 31.77957924 25.7621479 31.90806605 21 31 C11.907897 27.11905709 2.94494391 20.20486913 -1 11 C-1.34916892 6.87980672 -1.00556533 4.02226132 0 0 Z " fill="#F3F3F3" transform="translate(33,99)"/>
<path d="M0 0 C1.09618652 -0.00451172 2.19237305 -0.00902344 3.32177734 -0.01367188 C23.58559901 0.02309901 23.58559901 0.02309901 29.6875 6.125 C30.30696348 11.64157343 28.56518575 15.20519995 26.0625 19.9375 C25.69858154 20.64237549 25.33466309 21.34725098 24.9597168 22.07348633 C21.04423503 29.54427712 16.95095847 36.3984094 10.6875 42.125 C10.3575 42.455 10.0275 42.785 9.6875 43.125 C1.52944608 43.8705515 -5.27399572 43.10580078 -11.9375 38.1875 C-12.72125 37.506875 -13.505 36.82625 -14.3125 36.125 C-15.26125 35.568125 -16.21 35.01125 -17.1875 34.4375 C-23.34758449 29.87903748 -28.0827499 23.47005915 -30.3125 16.125 C-30.91554862 10.59056994 -30.20331597 6.37559256 -28.3125 1.125 C-18.87265263 0.25267087 -9.47799532 0.01611219 0 0 Z M-23.3125 6.125 C-24.49901865 10.87107462 -25.42732709 14.67502425 -23.32421875 19.296875 C-18.6739929 26.89442709 -10.86654275 34.27365242 -2.3125 37.125 C2.32202475 37.71839944 6.20648765 37.86550618 10.4375 35.75 C14.18155989 31.38193013 18.6875 26.04789213 18.6875 20.125 C17.3675 19.795 16.0475 19.465 14.6875 19.125 C13.6975 12.69 13.6975 12.69 12.6875 6.125 C0.8075 6.125 -11.0725 6.125 -23.3125 6.125 Z " fill="#101010" transform="translate(56.3125,92.875)"/>
<path d="M0 0 C3.12597705 2.10821708 4.90048477 3.85072715 7 7 C7.16856854 9.74852428 7.2333134 12.38101859 7.1875 15.125 C7.18685547 15.86621094 7.18621094 16.60742188 7.18554688 17.37109375 C7.14039459 22.85960541 7.14039459 22.85960541 6 24 C5.76807135 25.51469448 5.58784762 27.03754562 5.4375 28.5625 C5.35371094 29.38878906 5.26992187 30.21507813 5.18359375 31.06640625 C5.09271484 32.02353516 5.09271484 32.02353516 5 33 C5.845625 33.165 6.69125 33.33 7.5625 33.5 C12.34815765 35.58828697 15.22425926 38.59868734 18 43 C18.81212586 45.81855445 18.94704139 48.03431806 19 51 C14.64492043 54.02436081 14.64492043 54.02436081 12.03515625 53.92578125 C9.00849275 52.54896887 8.24775891 50.52209172 6.6875 47.625 C-2.51288785 30.46093372 -2.51288785 30.46093372 -15.875 16.625 C-17 15 -17 15 -17.125 11.6875 C-15.44991542 6.19694499 -11.85081578 3.57009215 -6.921875 0.85546875 C-4.36198131 -0.28399613 -2.77950807 -0.40675728 0 0 Z " fill="#F5F5F5" transform="translate(156,17)"/>
<path d="M0 0 C3.65897619 3.38455298 5.27822285 5.63333012 5.9375 10.625 C4.5679145 22.16864922 -5.26919203 31.74301367 -12.5625 40.25 C-16.96845008 45.4370983 -20.383087 50.79014799 -23.7109375 56.6953125 C-25.50841849 59.32481526 -26.54811952 60.25918582 -29.5 61.3125 C-30.42336464 54.23337107 -27.53372613 49.97793875 -23.5 44.3125 C-20.59314561 40.5651739 -17.56127529 36.93414432 -14.5 33.3125 C-4.79088665 22.13205544 -4.79088665 22.13205544 -0.5 8.3125 C-1.304375 8.003125 -2.10875 7.69375 -2.9375 7.375 C-5.5 6.3125 -5.5 6.3125 -6.5 5.3125 C-18.81453327 5.10725778 -29.76028633 14.33942788 -38.5 22.3125 C-40.45645214 24.43623243 -42.32141553 26.58926941 -44.125 28.84375 C-44.805625 29.57078125 -44.805625 29.57078125 -45.5 30.3125 C-46.16 30.3125 -46.82 30.3125 -47.5 30.3125 C-48.3203125 27.19921875 -48.3203125 27.19921875 -48.5 23.3125 C-46.85239259 20.76415781 -45.53635757 19.15553018 -43.375 17.125 C-42.80604004 16.57690674 -42.23708008 16.02881348 -41.65087891 15.46411133 C-36.50850487 10.77097316 -30.85152947 7.04419615 -24.875 3.5 C-24.0176123 2.97833252 -23.16022461 2.45666504 -22.27685547 1.91918945 C-15.02532835 -2.14677147 -7.72821817 -3.72610519 0 0 Z " fill="#1B1A1A" transform="translate(168.5,117.6875)"/>
<path d="M0 0 C3.36011403 1.44004887 5.2647856 3.9336864 7.1875 6.9375 C9.28256134 12.34055292 9.89211115 18.03618667 10.72265625 23.75390625 C11.0263053 25.83351947 11.36349368 27.90858567 11.73828125 29.9765625 C12.18878932 32.94599831 12.32071097 35.74888892 12.3125 38.75 C12.31636719 40.18279297 12.31636719 40.18279297 12.3203125 41.64453125 C12.1875 43.9375 12.1875 43.9375 11.1875 44.9375 C11.02619318 48.32494316 11.25403349 51.38844919 11.75 54.75 C11.894375 55.801875 12.03875 56.85375 12.1875 57.9375 C11.1875 58.9375 11.1875 58.9375 8.8125 59.25 C6.1875 58.9375 6.1875 58.9375 4.53955078 57.28076172 C2.84594774 54.3455501 2.85671389 52.50824129 2.9296875 49.1328125 C2.94467285 47.99803467 2.9596582 46.86325684 2.97509766 45.6940918 C3.00394043 44.4956665 3.0327832 43.29724121 3.0625 42.0625 C3.09197502 39.61332016 3.11805124 37.16409692 3.140625 34.71484375 C3.15899414 32.95503174 3.15899414 32.95503174 3.17773438 31.15966797 C3.2020692 23.13039167 2.95138861 15.54381133 0.1875 7.9375 C-7.42500313 15.01696134 -11.38112305 24.6754919 -14.76953125 34.3203125 C-15.8125 36.9375 -15.8125 36.9375 -17.8125 38.9375 C-18.8025 38.9375 -19.7925 38.9375 -20.8125 38.9375 C-21.42592787 26.25999075 -17.14245024 15.37550994 -8.87109375 5.65625 C-3.21049484 -0.11070672 -3.21049484 -0.11070672 0 0 Z " fill="#120F10" transform="translate(92.8125,41.0625)"/>
<path d="M0 0 C4.04789147 4.21422757 6.3530123 8.4234286 6.48828125 14.3046875 C6.44594082 16.16190005 6.38695393 18.01879749 6.3125 19.875 C6.29842317 27.22861377 6.55835896 31.88565812 11.4375 37.5625 C12.24058594 38.32691406 13.04367188 39.09132812 13.87109375 39.87890625 C17.46645007 43.4610686 18.28918308 47.02572379 18.3125 52 C18.21404244 56.14137121 17.81933655 58.79178945 15 62 C11.58673752 64.53806697 10.36087656 65 6 65 C6 63.02 6 61.04 6 59 C7.98 58.505 7.98 58.505 10 58 C10.53427056 50.38664455 9.03175979 46.618552 4.0625 40.6875 C1.81105115 38.84540548 -0.25182397 37.91605868 -3 37 C-3.02689216 35.52093108 -3.04634621 34.04172517 -3.0625 32.5625 C-3.07410156 31.73878906 -3.08570313 30.91507813 -3.09765625 30.06640625 C-3 28 -3 28 -2 27 C-1.79208648 24.39811084 -1.67545904 21.8555213 -1.625 19.25 C-1.58761719 18.53328125 -1.55023438 17.8165625 -1.51171875 17.078125 C-1.44473414 13.02927771 -1.74705722 11.29825827 -4.3984375 8.171875 C-5.25695312 7.45515625 -6.11546875 6.7384375 -7 6 C-7.66 5.01 -8.32 4.02 -9 3 C-11.31 3.33 -13.62 3.66 -16 4 C-16 2.68 -16 1.36 -16 0 C-9.98774859 -3.45384655 -6.05147666 -3.54645584 0 0 Z " fill="#161517" transform="translate(164,13)"/>
<path d="M0 0 C0.33 0 0.66 0 1 0 C0.67 13.53 0.34 27.06 0 41 C2.97 40.505 2.97 40.505 6 40 C5.67 37.36 5.34 34.72 5 32 C5.680625 32.70125 6.36125 33.4025 7.0625 34.125 C12.08270525 39.10290015 16.79588537 43.2268406 23.30078125 46.140625 C25 47 25 47 27 49 C28.670625 49.185625 28.670625 49.185625 30.375 49.375 C34.55190731 50.09515643 35.15874964 51.06996057 38 54 C43.22275309 55.94573154 48.48592875 56.52486461 54 57 C53.505 57.99 53.505 57.99 53 59 C54.32 59.66 55.64 60.32 57 61 C56.01 61.33 55.02 61.66 54 62 C54.0825 62.7425 54.165 63.485 54.25 64.25 C54 67 54 67 52.125 68.6875 C48.87756575 72.22147256 48.67347317 76.35657973 48 81 C47.67 81 47.34 81 47 81 C46.94550162 79.27119018 46.90698312 77.54187288 46.875 75.8125 C46.85179687 74.84957031 46.82859375 73.88664062 46.8046875 72.89453125 C47.0086456 69.87187222 47.73125368 67.73230015 49 65 C48.18917969 64.85304688 47.37835938 64.70609375 46.54296875 64.5546875 C38.44243551 62.91383443 32.01918671 60.31949951 25 56 C21.80876318 54.04759735 18.61333935 52.26270445 15.25 50.625 C9.33432599 47.69811196 3.49561998 44.66374665 -2 41 C-4.64241411 27.78792943 -3.29379899 12.95560935 0 0 Z " fill="#1F1F22" transform="translate(10,79)"/>
<path d="M0 0 C2.97824284 1.3827556 5.59117484 2.752802 8 5 C8.72949219 7.69213867 8.72949219 7.69213867 9.046875 10.91796875 C9.16933594 12.09037109 9.29179688 13.26277344 9.41796875 14.47070312 C9.52753906 15.69724609 9.63710938 16.92378906 9.75 18.1875 C9.87503906 19.39470703 10.00007813 20.60191406 10.12890625 21.84570312 C10.7335817 27.92235921 11.15207104 33.89434781 11 40 C4.84765625 40.09765625 4.84765625 40.09765625 3 40 C2 39 2 39 1.88647461 36.13256836 C1.89171143 34.88096924 1.89694824 33.62937012 1.90234375 32.33984375 C1.9037587 31.67537735 1.90517365 31.01091095 1.90663147 30.3263092 C1.91224482 28.19666101 1.92479946 26.06711661 1.9375 23.9375 C1.94251329 22.49674631 1.94707649 21.05599097 1.95117188 19.61523438 C1.96221855 16.07678898 1.97949208 12.53840461 2 9 C-3.35166366 14.21787207 -5.05851952 19.94410523 -7 27 C-8.04737079 30.79671911 -9.1274515 34.57656176 -10.375 38.3125 C-10.58898438 38.96863281 -10.80296875 39.62476563 -11.0234375 40.30078125 C-12.29370309 42.51104338 -13.67880954 43.05910592 -16 44 C-16.2243987 34.74355353 -14.75087805 27.15204218 -11.3125 18.5625 C-10.98572266 17.73524414 -10.65894531 16.90798828 -10.32226562 16.05566406 C-7.81608966 10.10169918 -4.60265435 4.60265435 0 0 Z " fill="#191616" transform="translate(44,38)"/>
<path d="M0 0 C1.25167969 0.00257813 2.50335938 0.00515625 3.79296875 0.0078125 C5.03691406 0.00523437 6.28085938 0.00265625 7.5625 0 C10.26832877 0.10514077 12.4238123 0.32137998 14.98046875 1.1328125 C15.36796914 9.3564319 14.56763773 16.3097063 11.98046875 24.1328125 C10.99046875 24.1328125 10.00046875 24.1328125 8.98046875 24.1328125 C7.20252972 22.29847808 5.62647886 20.49837648 4.04296875 18.5078125 C3.61306641 17.98574219 3.18316406 17.46367187 2.74023438 16.92578125 C-5.09687171 7.29291944 -5.09687171 7.29291944 -4.83203125 3.3203125 C-3.61779283 0.05120907 -3.65185977 0.16062514 0 0 Z " fill="#F5F5F4" transform="translate(67.01953125,150.8671875)"/>
<path d="M0 0 C-0.41116244 5.74906072 -1.82175034 8.73691266 -5.4375 13.1875 C-6.10531494 14.0237793 -6.10531494 14.0237793 -6.78662109 14.87695312 C-9.01034852 17.64391097 -11.29534516 20.35578352 -13.60546875 23.05078125 C-18.88383446 29.22933336 -23.2349373 35.32752704 -27.2109375 42.3828125 C-29.00841849 45.01231526 -30.04811952 45.94668582 -33 47 C-33.92336464 39.92087107 -31.03372613 35.66543875 -27 30 C-24.09310336 26.25261943 -21.05920955 22.62342925 -18 19 C-12.38575324 12.3398681 -12.38575324 12.3398681 -7.75 5 C-5.67785473 1.44775097 -4.14159327 0 0 0 Z " fill="#161616" transform="translate(172,132)"/>
<path d="M0 0 C1.98 0 3.96 0 6 0 C6 0.66 6 1.32 6 2 C6.99 1.67 7.98 1.34 9 1 C9.05437005 3.85442753 9.09384974 6.70780076 9.125 9.5625 C9.15013672 10.76229492 9.15013672 10.76229492 9.17578125 11.98632812 C9.21706738 17.04387881 8.54102276 21.13577929 7 26 C6.78285008 27.70265277 6.61015472 29.41209414 6.5 31.125 C6.19559069 34.75577286 5.65061417 37.69877166 4 41 C3.34 41 2.68 41 2 41 C1.34 37.7 0.68 34.4 0 31 C-1.98 30.34 -3.96 29.68 -6 29 C-5.0409375 28.319375 -5.0409375 28.319375 -4.0625 27.625 C-1.90297594 26.16078274 -1.90297594 26.16078274 -1 24 C-0.690625 23.443125 -0.38125 22.88625 -0.0625 22.3125 C3.11054437 15.40646224 3.53158378 8.50698632 4 1 C2.68 0.67 1.36 0.34 0 0 Z " fill="#242427" transform="translate(78,151)"/>
<path d="M0 0 C0.33 0 0.66 0 1 0 C1.33 3.63 1.66 7.26 2 11 C3.32 11.33 4.64 11.66 6 12 C6.33 9.69 6.66 7.38 7 5 C8.04005702 8.38018531 8.08004482 11.4780279 8 15 C9.32 14.01 10.64 13.02 12 12 C12 16.95 12 21.9 12 27 C12.66 27.33 13.32 27.66 14 28 C11.69 28 9.38 28 7 28 C6.67 29.98 6.34 31.96 6 34 C5.67 34 5.34 34 5 34 C5 31.03 5 28.06 5 25 C2.03 25.66 -0.94 26.32 -4 27 C-4.33 28.65 -4.66 30.3 -5 32 C-5.33 32 -5.66 32 -6 32 C-6.125 24.375 -6.125 24.375 -5 21 C-4.34 21 -3.68 21 -3 21 C-2.67 22.32 -2.34 23.64 -2 25 C-1.01 24.67 -0.02 24.34 1 24 C1.26932521 19.34947128 1.26932521 19.34947128 0 15 C-0.0716735 12.44842345 -0.09308442 9.92527029 -0.0625 7.375 C-0.05798828 6.66859375 -0.05347656 5.9621875 -0.04882812 5.234375 C-0.03703875 3.48954725 -0.01910324 1.744763 0 0 Z " fill="#DDBDB6" transform="translate(21,66)"/>
<path d="M0 0 C2.9375 1.5 2.9375 1.5 5 3 C2 4 2 4 0.25 3.4375 C-3.12939916 2.78039461 -5.78421187 3.94868465 -9 5 C-8.67 5.99 -8.34 6.98 -8 8 C-6.02 7.67 -4.04 7.34 -2 7 C-1.67 7.66 -1.34 8.32 -1 9 C-1.58007812 9.15855469 -2.16015625 9.31710938 -2.7578125 9.48046875 C-8.268226 11.12631833 -12.04867966 12.75955866 -16 17 C-17.01717987 19.36359186 -17.50022664 21.45115587 -18 24 C-18.66 24 -19.32 24 -20 24 C-20 23.34 -20 22.68 -20 22 C-20.598125 21.731875 -21.19625 21.46375 -21.8125 21.1875 C-23.97224808 20.01506533 -25.35790256 18.80630718 -27 17 C-26.40832031 16.74734375 -25.81664062 16.4946875 -25.20703125 16.234375 C-22.73986939 14.85451102 -21.46288171 13.43638893 -19.6875 11.25 C-13.90734291 4.41097793 -9.3543465 -0.63419298 0 0 Z " fill="#28282A" transform="translate(157,8)"/>
<path d="M0 0 C0.33 0 0.66 0 1 0 C2.21293283 5.60981434 2.33111384 11.28341698 2 17 C1.67 17.33 1.34 17.66 1 18 C0.83869318 21.38744316 1.06653349 24.45094919 1.5625 27.8125 C1.706875 28.864375 1.85125 29.91625 2 31 C1 32 1 32 -1.375 32.3125 C-4 32 -4 32 -5.6484375 30.46484375 C-7.50211806 27.08428758 -7.36433941 23.99894671 -7.25 20.25 C-7.23904297 19.53714844 -7.22808594 18.82429688 -7.21679688 18.08984375 C-7.1166577 13.32670236 -6.78264742 8.69588452 -6 4 C-3.60926555 7.82517513 -3.44033448 11.59665524 -3 16 C-1.68 16 -0.36 16 1 16 C0.67 10.72 0.34 5.44 0 0 Z " fill="#96575F" transform="translate(103,68)"/>
<path d="M0 0 C0.33 0 0.66 0 1 0 C0.67 13.53 0.34 27.06 0 41 C2.97 40.505 2.97 40.505 6 40 C5.67 37.36 5.34 34.72 5 32 C7.64752004 34.57784846 9.94432065 36.91648098 12 40 C11.01 40 10.02 40 9 40 C9.33 41.98 9.66 43.96 10 46 C11.32 46.33 12.64 46.66 14 47 C14 47.66 14 48.32 14 49 C8.39195928 46.8099987 2.84650689 44.63285742 -2 41 C-3.0776897 37.65348987 -3.23645217 36.32186457 -3 33 C-3.04052798 31.27080627 -3.08227414 29.54164082 -3.125 27.8125 C-3.01994732 18.3446268 -2.33638649 9.18978685 0 0 Z " fill="#6A5E5E" transform="translate(10,79)"/>
<path d="M0 0 C4.43970742 1.39533662 6.90515679 3.56128532 10 7 C11.50662097 10.01324195 11.17770373 12.68286377 11 16 C10.34 16.66 9.68 17.32 9 18 C9 17.34 9 16.68 9 16 C7.35 16.66 5.7 17.32 4 18 C4.33 15.36 4.66 12.72 5 10 C2.525 9.01 2.525 9.01 0 8 C0.99 7.67 1.98 7.34 3 7 C3 5.68 3 4.36 3 3 C2.34 3 1.68 3 1 3 C0.67 2.01 0.34 1.02 0 0 Z " fill="#151216" transform="translate(163,116)"/>
<path d="M0 0 C3.6383251 0.58703472 6.51118068 1.55723382 9.75 3.3125 C10.52859375 3.72113281 11.3071875 4.12976563 12.109375 4.55078125 C14 6 14 6 14.828125 8.10546875 C14.88484375 8.73066406 14.9415625 9.35585937 15 10 C14 11 14 11 12.15234375 11.09765625 C10.1015625 11.06510417 8.05078125 11.03255208 6 11 C5.731875 10.360625 5.46375 9.72125 5.1875 9.0625 C4.11332248 6.66868314 4.11332248 6.66868314 1 6 C0.67 4.02 0.34 2.04 0 0 Z " fill="#1E1E1F" transform="translate(19,119)"/>
<path d="M0 0 C2.97 0 5.94 0 9 0 C9.33 0.99 9.66 1.98 10 3 C10.66 3 11.32 3 12 3 C12 4.32 12 5.64 12 7 C11.02160156 6.98259766 11.02160156 6.98259766 10.0234375 6.96484375 C5.2238086 6.91529006 0.72215315 7.00586249 -4 8 C-2.68 5.36 -1.36 2.72 0 0 Z " fill="#0C0C0C" transform="translate(154,116)"/>
<path d="M0 0 C0.33 0 0.66 0 1 0 C1.06058594 0.77085938 1.12117188 1.54171875 1.18359375 2.3359375 C1.26738281 3.33882813 1.35117187 4.34171875 1.4375 5.375 C1.51871094 6.37273437 1.59992187 7.37046875 1.68359375 8.3984375 C1.84965626 10.97927613 1.84965626 10.97927613 3 13 C3.04022391 15.3329866 3.04320247 17.66706666 3 20 C1.68 20.33 0.36 20.66 -1 21 C-1.33 19.68 -1.66 18.36 -2 17 C-2.66 17 -3.32 17 -4 17 C-4.33 17.99 -4.66 18.98 -5 20 C-4.32930848 15.41105799 -3.23877704 11.07452793 -1.9375 6.625 C-1.57527344 5.37976563 -1.21304687 4.13453125 -0.83984375 2.8515625 C-0.56269531 1.91054687 -0.28554688 0.96953125 0 0 Z " fill="#965F5C" transform="translate(20,70)"/>
<path d="M0 0 C2.64752004 2.57784846 4.94432065 4.91648098 7 8 C6.01 8 5.02 8 4 8 C4.33 9.98 4.66 11.96 5 14 C6.32 14.33 7.64 14.66 9 15 C9 15.66 9 16.32 9 17 C5.45756548 15.63408831 2.07372071 14.09068516 -1.3125 12.375 C-2.19550781 11.92898437 -3.07851562 11.48296875 -3.98828125 11.0234375 C-4.65214844 10.68570313 -5.31601563 10.34796875 -6 10 C-6 7.69 -6 5.38 -6 3 C-5.67 3 -5.34 3 -5 3 C-5 4.98 -5 6.96 -5 9 C-3.02 8.67 -1.04 8.34 1 8 C0.67 5.36 0.34 2.72 0 0 Z " fill="#484445" transform="translate(15,111)"/>
<path d="M0 0 C0.33 0 0.66 0 1 0 C1 4.95 1 9.9 1 15 C1.66 15.33 2.32 15.66 3 16 C0.69 16 -1.62 16 -4 16 C-4.33 17.98 -4.66 19.96 -5 22 C-5.33 22 -5.66 22 -6 22 C-6 19.03 -6 16.06 -6 13 C-6.66 13 -7.32 13 -8 13 C-7.67 11.35 -7.34 9.7 -7 8 C-6.34 8 -5.68 8 -5 8 C-5 8.99 -5 9.98 -5 11 C-3.68 10.67 -2.36 10.34 -1 10 C-0.67 6.7 -0.34 3.4 0 0 Z " fill="#E4D1CA" transform="translate(32,78)"/>
<path d="M0 0 C0.33 0 0.66 0 1 0 C2.22517308 5.66642551 2.09228867 11.23708518 2 17 C0.02 17.99 0.02 17.99 -2 19 C-2 19.66 -2 20.32 -2 21 C-3.32 21 -4.64 21 -6 21 C-6 15.39 -6 9.78 -6 4 C-3.8008587 8.39828259 -3.48144941 11.18550592 -3 16 C-1.68 16 -0.36 16 1 16 C0.67 10.72 0.34 5.44 0 0 Z " fill="#634B50" transform="translate(103,68)"/>
<path d="M0 0 C0.7734375 0.7115625 0.7734375 0.7115625 1.5625 1.4375 C4.65949903 3.42275579 7.38676773 3.53161804 11 4 C13 6 13 6 13 9 C12.01 8.67 11.02 8.34 10 8 C10 7.34 10 6.68 10 6 C8.02 6.33 6.04 6.66 4 7 C3.67 8.32 3.34 9.64 3 11 C2.62875 10.54625 2.2575 10.0925 1.875 9.625 C-0.54264685 7.52970606 -2.95430602 6.87986715 -6 6 C-6 5.67 -6 5.34 -6 5 C-4.02 4.67 -2.04 4.34 0 4 C0 2.68 0 1.36 0 0 Z " fill="#504E4D" transform="translate(33,125)"/>
<path d="M0 0 C0.66 0.33 1.32 0.66 2 1 C1.40832031 1.73863281 0.81664063 2.47726563 0.20703125 3.23828125 C-7.2407467 12.80011036 -11.86023179 22.23225085 -15 34 C-15.33 34 -15.66 34 -16 34 C-15.5051925 27.88362947 -14.0873628 23.16341114 -11.5 17.625 C-11.01853516 16.55958984 -11.01853516 16.55958984 -10.52734375 15.47265625 C-9.38903791 12.96266805 -8.23261347 10.46522693 -7 8 C-6.34 8 -5.68 8 -5 8 C-4.731875 7.4225 -4.46375 6.845 -4.1875 6.25 C-2.98280141 3.9674132 -1.59201885 2.0262058 0 0 Z " fill="#413A3D" transform="translate(36,36)"/>
<path d="M0 0 C0.66 0.33 1.32 0.66 2 1 C0.56354149 2.60509934 -0.87420706 4.20904424 -2.3125 5.8125 C-3.11300781 6.70582031 -3.91351563 7.59914062 -4.73828125 8.51953125 C-6.04613064 9.95387384 -7.38407531 11.36399294 -8.79296875 12.69921875 C-10.22673259 13.9485879 -10.22673259 13.9485879 -10 16 C-9.34 16.66 -8.68 17.32 -8 18 C-9.98 18.99 -9.98 18.99 -12 20 C-12.90234375 16.93359375 -12.90234375 16.93359375 -13 13 C-11.26108572 10.25076682 -8.97730332 8.2197243 -6.5625 6.0625 C-5.93794922 5.47404297 -5.31339844 4.88558594 -4.66992188 4.27929688 C-3.13070623 2.83407913 -1.567562 1.41442161 0 0 Z " fill="#292626" transform="translate(133,128)"/>
<path d="M0 0 C0.66 0 1.32 0 2 0 C3.44207941 2.88415883 3.09394887 5.41721528 3.0625 8.625 C3.05347656 9.81351563 3.04445313 11.00203125 3.03515625 12.2265625 C3.02355469 13.14179687 3.01195313 14.05703125 3 15 C2.01 14.67 1.02 14.34 0 14 C-1.46359902 9.99436057 -2.48835394 6.27309696 -2 2 C-1.34 1.34 -0.68 0.68 0 0 Z " fill="#713345" transform="translate(113,86)"/>
<path d="M0 0 C1.0209375 0.7425 1.0209375 0.7425 2.0625 1.5 C-0.9375 2.5 -0.9375 2.5 -2.8125 1.9375 C-5.74183876 1.33440084 -7.20132851 2.3184714 -9.9375 3.5 C-12.59054053 4.23613229 -15.25778997 4.8641366 -17.9375 5.5 C-13.15877746 -0.98540916 -7.91496739 -4.04168548 0 0 Z " fill="#383639" transform="translate(159.9375,9.5)"/>
<path d="M0 0 C1.04005702 3.38018531 1.08004482 6.4780279 1 10 C1.99 9.67 2.98 9.34 4 9 C4 11.64 4 14.28 4 17 C2.68 17.33 1.36 17.66 0 18 C-0.96604701 14.75684218 -1.13419024 11.81491334 -1.125 8.4375 C-1.12757812 7.48746094 -1.13015625 6.53742188 -1.1328125 5.55859375 C-1 3 -1 3 0 0 Z " fill="#9B6D67" transform="translate(28,71)"/>
<path d="M0 0 C0.33 0 0.66 0 1 0 C1 2.97 1 5.94 1 9 C2.32 9 3.64 9 5 9 C5 8.34 5 7.68 5 7 C5.66 7 6.32 7 7 7 C7.33 9.31 7.66 11.62 8 14 C6.02 13.01 4.04 12.02 2 11 C2 13.31 2 15.62 2 18 C0 16 0 16 -0.1953125 12.3046875 C-0.182009 10.82799892 -0.15814835 9.35137642 -0.125 7.875 C-0.11146484 6.74384766 -0.11146484 6.74384766 -0.09765625 5.58984375 C-0.0740687 3.72642746 -0.03819719 1.86317407 0 0 Z " fill="#B38F95" transform="translate(96,80)"/>
<path d="M0 0 C0.93423645 3.01031744 1.04449911 3.86650268 0 7 C-0.99 7.495 -0.99 7.495 -2 8 C-2.79852014 9.71568102 -2.79852014 9.71568102 -3.4375 11.75 C-4.62145881 15.10857703 -6.03708105 18.00888541 -8 21 C-9 19 -9 19 -8.6171875 17.15234375 C-4.31564987 4.31564987 -4.31564987 4.31564987 0 0 Z " fill="#787072" transform="translate(23,45)"/>
<path d="M0 0 C1.37432457 3.81756824 0.67975039 7.07255329 0 11 C1.32 10.67 2.64 10.34 4 10 C3.25 12.875 3.25 12.875 2 16 C-0.078125 17.1953125 -0.078125 17.1953125 -2 18 C-1.8590651 15.56212615 -1.71245458 13.12482147 -1.5625 10.6875 C-1.52318359 9.99720703 -1.48386719 9.30691406 -1.44335938 8.59570312 C-1.25072585 5.52838465 -0.97677283 2.93031848 0 0 Z " fill="#583534" transform="translate(30,64)"/>
<path d="M0 0 C1.4540625 0.0309375 1.4540625 0.0309375 2.9375 0.0625 C2.9375 2.0425 2.9375 4.0225 2.9375 6.0625 C1.2875 6.0625 -0.3625 6.0625 -2.0625 6.0625 C-2.7225 4.4125 -3.3825 2.7625 -4.0625 1.0625 C-3.0625 0.0625 -3.0625 0.0625 0 0 Z " fill="#151516" transform="translate(40.0625,130.9375)"/>
<path d="M0 0 C1.5 1.0625 1.5 1.0625 3 3 C3.3125 6.5625 3.3125 6.5625 3 10 C2.34 10.66 1.68 11.32 1 12 C1 11.34 1 10.68 1 10 C-0.65 10.66 -2.3 11.32 -4 12 C-3.67 9.69 -3.34 7.38 -3 5 C-2.34 5.66 -1.68 6.32 -1 7 C-0.25042843 3.52852158 -0.25042843 3.52852158 0 0 Z " fill="#484549" transform="translate(171,122)"/>
<path d="M0 0 C0.33 0 0.66 0 1 0 C1 8.25 1 16.5 1 25 C0.01 25 -0.98 25 -2 25 C-2 23.35 -2 21.7 -2 20 C-1.34 20 -0.68 20 0 20 C0 13.4 0 6.8 0 0 Z " fill="#535055" transform="translate(188,114)"/>
<path d="M0 0 C0.33 0 0.66 0 1 0 C1 1.98 1 3.96 1 6 C-1.31 6.66 -3.62 7.32 -6 8 C-6.33 9.65 -6.66 11.3 -7 13 C-7.33 13 -7.66 13 -8 13 C-8.125 5.375 -8.125 5.375 -7 2 C-6.34 2 -5.68 2 -5 2 C-4.67 3.32 -4.34 4.64 -4 6 C-3.01 5.67 -2.02 5.34 -1 5 C-0.67 3.35 -0.34 1.7 0 0 Z " fill="#C59E99" transform="translate(23,85)"/>
<path d="M0 0 C0.66 0.33 1.32 0.66 2 1 C-2.62 5.62 -7.24 10.24 -12 15 C-12 10.09687565 -8.29800369 7.38658643 -5 4 C-3.37458956 2.61667196 -1.72614587 1.25537882 0 0 Z " fill="#D8D7D6" transform="translate(45,30)"/>
<path d="M0 0 C0.33 0 0.66 0 1 0 C1.3690205 9.41002278 1.3690205 9.41002278 -1 14 C-1.66 14 -2.32 14 -3 14 C-3.33 12.02 -3.66 10.04 -4 8 C-3.01 8.33 -2.02 8.66 -1 9 C-1.020625 7.700625 -1.04125 6.40125 -1.0625 5.0625 C-1.08399454 3.70834367 -1.07148199 2.35243917 -1 1 C-0.67 0.67 -0.34 0.34 0 0 Z " fill="#524C4D" transform="translate(83,178)"/>
<path d="M0 0 C0.66 0 1.32 0 2 0 C2.33 0.99 2.66 1.98 3 3 C2.29423828 3.58201172 2.29423828 3.58201172 1.57421875 4.17578125 C-0.40992887 6.47502924 -0.68533163 8.21311811 -1.1875 11.1875 C-1.34605469 12.08855469 -1.50460938 12.98960937 -1.66796875 13.91796875 C-1.83232422 14.94857422 -1.83232422 14.94857422 -2 16 C-2.33 16 -2.66 16 -3 16 C-3.5683665 3.98010109 -3.5683665 3.98010109 0 0 Z " fill="#39393B" transform="translate(60,144)"/>
<path d="M0 0 C0.33 0 0.66 0 1 0 C1 4.95 1 9.9 1 15 C1.66 15.33 2.32 15.66 3 16 C1.02 16 -0.96 16 -3 16 C-3 14.35 -3 12.7 -3 11 C-2.34 10.67 -1.68 10.34 -1 10 C-0.53248212 7.64400765 -0.53248212 7.64400765 -0.375 4.9375 C-0.30023437 4.01839844 -0.22546875 3.09929687 -0.1484375 2.15234375 C-0.09945313 1.44207031 -0.05046875 0.73179688 0 0 Z " fill="#CDB1A5" transform="translate(32,78)"/>
<path d="M0 0 C1.32 0 2.64 0 4 0 C4 2.31 4 4.62 4 7 C2.68 7.33 1.36 7.66 0 8 C0 5.36 0 2.72 0 0 Z " fill="#804446" transform="translate(19,83)"/>
<path d="M0 0 C4.62 0 9.24 0 14 0 C14 0.33 14 0.66 14 1 C13.33613281 1.02578125 12.67226563 1.0515625 11.98828125 1.078125 C6.45558259 1.43351002 3.03433925 1.83118278 -1 6 C-0.67 4.02 -0.34 2.04 0 0 Z " fill="#2E2525" transform="translate(28,94)"/>
<path d="M0 0 C2.9719385 1.12451727 5.33440687 2.22293791 8 4 C7.67 4.66 7.34 5.32 7 6 C6.34 5.67 5.68 5.34 5 5 C4.67 6.65 4.34 8.3 4 10 C2.68 9.01 1.36 8.02 0 7 C0.99 7 1.98 7 3 7 C3 5.68 3 4.36 3 3 C2.34 3 1.68 3 1 3 C0.67 2.01 0.34 1.02 0 0 Z " fill="#4E4B4B" transform="translate(163,116)"/>
<path d="M0 0 C3.82116982 0.32382795 5.62930359 1.08835716 8.6875 3.3125 C5.21237282 4.47087573 3.55079714 4.08515943 0 3.375 C-0.99386719 3.18035156 -1.98773438 2.98570313 -3.01171875 2.78515625 C-3.77097656 2.62917969 -4.53023437 2.47320312 -5.3125 2.3125 C-3.3125 0.3125 -3.3125 0.3125 0 0 Z " fill="#575454" transform="translate(153.3125,7.6875)"/>
<path d="M0 0 C0.99 0 1.98 0 3 0 C3 2.31 3 4.62 3 7 C0.69 6.34 -1.62 5.68 -4 5 C-3.34 4.54625 -2.68 4.0925 -2 3.625 C-1.34 3.08875 -0.68 2.5525 0 2 C0 1.34 0 0.68 0 0 Z " fill="#3D3B3E" transform="translate(76,175)"/>
<path d="M0 0 C6.41688675 -0.10349817 12.62694402 0.25492456 19 1 C19 1.33 19 1.66 19 2 C17.18818595 2.19401633 15.37551468 2.38004375 13.5625 2.5625 C12.04849609 2.71912109 12.04849609 2.71912109 10.50390625 2.87890625 C9.26447266 2.93884766 9.26447266 2.93884766 8 3 C7.67 2.67 7.34 2.34 7 2 C4.67182036 1.63239269 2.3381615 1.29758419 0 1 C0 0.67 0 0.34 0 0 Z " fill="#393738" transform="translate(89,13)"/>
<path d="M0 0 C1 2 1 2 1 5 C1.66 5.66 2.32 6.32 3 7 C1.02 7.99 1.02 7.99 -1 9 C-1.625 5.625 -1.625 5.625 -2 2 C-1.34 1.34 -0.68 0.68 0 0 Z " fill="#403B3B" transform="translate(122,139)"/>
<path d="M0 0 C0.99 0 1.98 0 3 0 C6 3.33333333 6 3.33333333 6 6 C6.66 6 7.32 6 8 6 C7.67 6.66 7.34 7.32 7 8 C5.8274869 7.04882866 4.66212985 6.08882991 3.5 5.125 C2.8503125 4.59132813 2.200625 4.05765625 1.53125 3.5078125 C1.0259375 3.01023437 0.520625 2.51265625 0 2 C0 1.34 0 0.68 0 0 Z " fill="#3E393A" transform="translate(33,120)"/>
<path d="M0 0 C0.33 0.99 0.66 1.98 1 3 C-1.64 5.64 -4.28 8.28 -7 11 C-7 7.22089522 -6.00296038 6.53893899 -3.5 3.8125 C-2.8503125 3.09707031 -2.200625 2.38164063 -1.53125 1.64453125 C-1.0259375 1.10183594 -0.520625 0.55914063 0 0 Z " fill="#595256" transform="translate(35,30)"/>
<path d="M0 0 C1.65 0 3.3 0 5 0 C5.33 1.32 5.66 2.64 6 4 C4.35 3.67 2.7 3.34 1 3 C0.67 2.01 0.34 1.02 0 0 Z " fill="#7A8B8F" transform="translate(72,101)"/>
<path d="M0 0 C2.31 1.65 4.62 3.3 7 5 C5.68 5.33 4.36 5.66 3 6 C0.25 3.5625 0.25 3.5625 -2 1 C-1.34 0.67 -0.68 0.34 0 0 Z " fill="#E7E6E6" transform="translate(34,123)"/>
<path d="M0 0 C1.9375 0.375 1.9375 0.375 4 1 C4.33 1.66 4.66 2.32 5 3 C4.01 3.33 3.02 3.66 2 4 C2 5.32 2 6.64 2 8 C1.34 8 0.68 8 0 8 C0 5.36 0 2.72 0 0 Z " fill="#8B4852" transform="translate(98,91)"/>
<path d="M0 0 C0.33 0.66 0.66 1.32 1 2 C3.02463255 2.65213292 3.02463255 2.65213292 5 3 C3.68799596 4.35432675 2.35368596 5.68733482 1 7 C0.67 7 0.34 7 0 7 C0 4.69 0 2.38 0 0 Z " fill="#5C2523" transform="translate(28,75)"/>
<path d="M0 0 C0.66 0 1.32 0 2 0 C4.09230769 4.43076923 4.09230769 4.43076923 3.625 7.3125 C3.41875 7.869375 3.2125 8.42625 3 9 C0.70620251 5.55930376 0 4.27709699 0 0 Z " fill="#454747" transform="translate(151,56)"/>
<path d="M0 0 C0.33 0 0.66 0 1 0 C1 4.29 1 8.58 1 13 C0.01 12.67 -0.98 12.34 -2 12 C-2 11.34 -2 10.68 -2 10 C-1.34 10 -0.68 10 0 10 C0 6.7 0 3.4 0 0 Z " fill="#804F59" transform="translate(115,88)"/>
<path d="M0 0 C0.93423645 3.01031744 1.04449911 3.86650268 0 7 C-0.99 7.33 -1.98 7.66 -3 8 C-2.45276317 4.62537285 -1.9451 2.91765 0 0 Z " fill="#534D50" transform="translate(23,45)"/>
<path d="M0 0 C0 0.99 0 1.98 0 3 C-0.99 2.67 -1.98 2.34 -3 2 C-3 1.34 -3 0.68 -3 0 C-4.98 0 -6.96 0 -9 0 C-9 -0.33 -9 -0.66 -9 -1 C-3.375 -2.25 -3.375 -2.25 0 0 Z " fill="#3E3E40" transform="translate(46,131)"/>
</svg>
